<svg width="126" height="62" viewBox="0 0 126 62" fill="none" xmlns="http://www.w3.org/2000/svg">
<path d="M17.2427 49.5176C13.4471 49.5176 10.3589 48.2754 7.97803 45.791C5.59717 43.2894 4.40674 39.951 4.40674 35.7759V34.896C4.40674 32.1183 4.93294 29.6426 5.98535 27.4688C7.05501 25.2777 8.53874 23.5697 10.4365 22.3447C12.3516 21.1025 14.4219 20.4814 16.6475 20.4814C20.2878 20.4814 23.1172 21.6805 25.1357 24.0786C27.1543 26.4767 28.1636 29.91 28.1636 34.3784V36.3711H9.19434C9.26335 39.1315 10.0656 41.3657 11.6011 43.0737C13.1538 44.7645 15.1206 45.6099 17.5015 45.6099C19.1922 45.6099 20.6242 45.2648 21.7974 44.5747C22.9705 43.8846 23.9971 42.9702 24.877 41.8315L27.8013 44.1089C25.4549 47.7147 21.9354 49.5176 17.2427 49.5176ZM16.6475 24.415C14.7152 24.415 13.0934 25.1224 11.7822 26.5371C10.471 27.9346 9.66016 29.9014 9.34961 32.4375H23.376V32.0752C23.238 29.6426 22.5824 27.762 21.4092 26.4336C20.236 25.0879 18.6488 24.415 16.6475 24.415ZM51.0146 46.231C49.1514 48.422 46.4168 49.5176 42.811 49.5176C39.8263 49.5176 37.549 48.6549 35.979 46.9297C34.4263 45.1872 33.6413 42.6165 33.624 39.2178V20.999H38.4116V39.0884C38.4116 43.3325 40.1369 45.4546 43.5874 45.4546C47.245 45.4546 49.6776 44.0916 50.8853 41.3657V20.999H55.6729V49H51.1182L51.0146 46.231ZM70.7861 36.0347L67.7842 39.166V49H62.9966V9.25H67.7842V33.2915L70.3462 30.2119L79.0674 20.999H84.8901L73.9951 32.6963L86.1582 49H80.5425L70.7861 36.0347ZM107.12 49C106.844 48.4479 106.62 47.4645 106.447 46.0498C104.222 48.3617 101.565 49.5176 98.4766 49.5176C95.7161 49.5176 93.4474 48.7412 91.6704 47.1885C89.9106 45.6185 89.0308 43.6344 89.0308 41.2363C89.0308 38.3206 90.1349 36.0605 92.3433 34.4561C94.5688 32.8343 97.6916 32.0234 101.711 32.0234H106.37V29.8237C106.37 28.1502 105.869 26.8218 104.869 25.8384C103.868 24.8377 102.393 24.3374 100.443 24.3374C98.7354 24.3374 97.3034 24.7687 96.1475 25.6313C94.9915 26.494 94.4136 27.5378 94.4136 28.7627H89.6001C89.6001 27.3652 90.0918 26.0195 91.0752 24.7256C92.0758 23.4144 93.4215 22.3792 95.1123 21.6201C96.8203 20.861 98.6922 20.4814 100.728 20.4814C103.954 20.4814 106.482 21.2923 108.311 22.9141C110.139 24.5186 111.088 26.7355 111.157 29.5649V42.4526C111.157 45.0233 111.485 47.0677 112.141 48.5859V49H107.12ZM99.1753 45.3511C100.676 45.3511 102.1 44.9629 103.445 44.1865C104.791 43.4102 105.766 42.4009 106.37 41.1587V35.4136H102.617C96.7513 35.4136 93.8184 37.1302 93.8184 40.5635C93.8184 42.0645 94.3187 43.2376 95.3193 44.083C96.32 44.9284 97.6053 45.3511 99.1753 45.3511Z" fill="#0B3C5D"/>
<circle cx="119.5" cy="46.5" r="3.5" fill="#D9B310"/>
</svg>
